<svg id="svg" version="1.1" xmlns="http://www.w3.org/2000/svg" xmlns:xlink="http://www.w3.org/1999/xlink" width="400" height="151.3677811550152" viewBox="0, 0, 400,151.3677811550152"><g id="svgg"><path id="path0" d="M290.000 9.132 C 288.977 9.287,280.436 11.861,280.361 12.037 C 280.331 12.108,280.166 12.167,279.996 12.167 C 279.826 12.167,279.640 12.242,279.583 12.333 C 279.527 12.425,279.296 12.500,279.071 12.500 C 278.846 12.500,278.532 12.569,278.373 12.653 C 278.214 12.737,277.633 12.930,277.083 13.083 C 276.533 13.235,275.333 13.590,274.417 13.871 C 271.489 14.768,270.280 15.132,269.000 15.504 C 268.313 15.704,267.600 15.926,267.417 15.998 C 267.233 16.070,266.783 16.210,266.417 16.308 C 266.050 16.407,264.887 16.754,263.833 17.080 C 262.779 17.405,261.617 17.752,261.250 17.852 C 260.883 17.951,260.453 18.100,260.294 18.183 C 260.135 18.266,259.914 18.333,259.804 18.333 C 259.602 18.333,257.040 19.089,256.417 19.332 C 256.233 19.403,255.783 19.545,255.417 19.646 C 254.426 19.918,253.034 20.333,252.000 20.663 C 251.496 20.824,250.746 21.048,250.333 21.161 C 249.921 21.273,249.453 21.434,249.294 21.516 C 249.135 21.599,248.914 21.667,248.804 21.667 C 248.618 21.667,247.047 22.129,244.833 22.834 C 244.329 22.995,243.467 23.254,242.917 23.410 C 242.367 23.566,241.729 23.757,241.500 23.835 C 241.271 23.913,240.521 24.140,239.833 24.339 C 239.146 24.538,238.433 24.760,238.250 24.833 C 238.067 24.906,237.317 25.133,236.583 25.337 C 235.850 25.541,234.725 25.876,234.083 26.081 C 233.442 26.286,232.354 26.620,231.667 26.823 C 230.979 27.026,229.817 27.375,229.083 27.599 C 228.350 27.822,227.112 28.198,226.333 28.434 C 225.554 28.670,224.204 29.082,223.333 29.349 C 222.463 29.616,221.450 29.918,221.083 30.020 C 220.717 30.122,220.229 30.266,220.000 30.341 C 219.618 30.465,218.607 30.773,215.667 31.663 C 215.071 31.843,213.908 32.188,213.083 32.430 C 212.258 32.671,211.433 32.927,211.250 32.999 C 211.067 33.070,210.617 33.212,210.250 33.313 C 209.559 33.504,207.063 34.256,206.333 34.493 C 206.104 34.567,205.579 34.720,205.167 34.833 C 204.754 34.946,204.267 35.097,204.083 35.169 C 203.900 35.241,203.300 35.427,202.750 35.583 C 201.282 35.999,200.857 36.125,199.750 36.475 C 198.634 36.828,196.555 37.453,194.667 38.003 C 193.979 38.203,193.267 38.427,193.083 38.500 C 192.900 38.573,192.300 38.761,191.750 38.917 C 190.275 39.335,189.854 39.460,188.750 39.809 C 187.729 40.133,186.203 40.586,184.417 41.096 C 183.867 41.253,183.004 41.513,182.500 41.674 C 181.996 41.835,181.377 42.013,181.124 42.070 C 180.781 42.147,180.574 42.373,180.303 42.962 C 180.104 43.395,179.814 43.938,179.658 44.167 C 179.502 44.396,177.424 48.446,175.041 53.167 C 171.076 61.021,165.537 71.979,161.672 79.614 C 159.940 83.036,160.036 82.979,159.008 81.201 C 158.599 80.494,157.756 79.114,157.133 78.132 C 156.510 77.151,156.000 76.312,156.000 76.269 C 156.000 76.226,155.712 75.754,155.361 75.220 C 155.009 74.687,154.359 73.650,153.915 72.917 C 153.471 72.183,152.511 70.608,151.782 69.417 C 151.052 68.225,150.362 67.078,150.248 66.867 C 150.133 66.657,149.727 66.151,149.344 65.742 L 148.648 65.000 144.110 65.000 L 139.571 65.000 138.766 65.817 L 137.961 66.635 138.080 84.526 C 138.145 94.366,138.229 102.466,138.266 102.525 C 138.303 102.585,138.739 102.904,139.236 103.234 L 140.140 103.833 142.766 103.833 L 145.392 103.833 146.256 103.238 L 147.120 102.644 147.234 100.113 C 147.297 98.722,147.415 93.732,147.496 89.025 C 147.578 84.318,147.688 80.423,147.743 80.368 C 147.902 80.209,148.195 80.618,149.743 83.167 C 150.550 84.496,151.566 86.146,151.999 86.833 C 153.906 89.857,155.167 91.994,155.167 92.201 C 155.167 92.423,154.558 93.645,149.414 103.750 C 147.968 106.592,145.717 111.017,144.413 113.583 C 143.109 116.150,141.770 118.696,141.438 119.240 C 141.105 119.785,140.833 120.322,140.833 120.434 C 140.833 120.546,139.923 122.426,138.810 124.611 C 137.697 126.796,135.691 130.758,134.352 133.417 C 133.013 136.075,131.879 138.287,131.833 138.333 C 131.762 138.405,128.849 144.156,128.696 144.528 C 128.521 144.951,129.803 145.215,130.694 144.939 C 131.183 144.787,131.846 144.591,132.167 144.505 C 132.487 144.418,133.387 144.155,134.167 143.922 C 134.946 143.688,135.883 143.414,136.250 143.312 C 136.617 143.211,137.104 143.069,137.333 142.998 C 137.563 142.926,138.162 142.752,138.667 142.611 C 139.171 142.470,140.371 142.122,141.333 141.839 C 142.296 141.555,143.383 141.241,143.750 141.142 C 144.117 141.043,144.604 140.897,144.833 140.818 C 145.063 140.739,147.200 140.103,149.583 139.406 C 153.737 138.190,154.326 138.020,155.542 137.684 C 155.840 137.601,156.758 137.330,157.583 137.081 C 158.408 136.832,159.308 136.566,159.583 136.490 C 159.858 136.414,160.346 136.278,160.667 136.187 C 160.987 136.097,161.438 135.972,161.667 135.910 C 161.896 135.848,162.908 135.546,163.917 135.237 C 164.925 134.929,166.162 134.566,166.667 134.430 C 167.642 134.167,167.942 134.080,171.583 133.003 C 172.867 132.624,174.292 132.211,174.750 132.086 C 175.208 131.961,175.921 131.751,176.333 131.620 C 176.746 131.489,177.421 131.285,177.833 131.168 C 178.246 131.051,178.808 130.890,179.083 130.812 C 179.771 130.615,181.695 130.037,183.000 129.636 C 183.596 129.452,184.346 129.240,184.667 129.164 C 184.987 129.089,185.625 128.916,186.083 128.782 C 186.542 128.647,188.492 128.077,190.417 127.514 C 192.342 126.952,194.104 126.427,194.333 126.348 C 194.563 126.270,195.088 126.111,195.500 125.997 C 196.824 125.629,197.214 125.514,199.167 124.924 C 200.221 124.604,201.496 124.232,202.000 124.096 C 203.626 123.658,211.315 121.417,212.000 121.182 C 212.229 121.103,212.717 120.957,213.083 120.858 C 213.450 120.758,215.175 120.260,216.917 119.750 C 218.658 119.239,220.496 118.706,221.000 118.563 C 221.504 118.421,222.367 118.165,222.917 117.995 C 223.467 117.825,225.379 117.265,227.167 116.750 C 228.954 116.235,230.642 115.745,230.917 115.660 C 231.192 115.575,232.092 115.312,232.917 115.076 C 240.064 113.029,239.248 113.674,242.297 107.667 C 243.576 105.146,246.068 100.233,247.835 96.750 L 251.047 90.417 250.030 90.333 C 249.044 90.252,248.991 90.224,248.257 89.361 L 247.500 88.473 247.500 86.148 C 247.500 83.894,247.515 83.794,248.002 82.829 L 248.505 81.833 269.582 81.833 L 290.660 81.833 291.162 82.708 C 291.656 83.570,291.664 83.619,291.665 85.999 L 291.667 88.416 292.250 87.595 L 292.833 86.775 292.833 84.253 C 292.833 81.742,292.831 81.729,292.337 80.949 L 291.841 80.167 274.087 80.167 C 264.322 80.167,256.336 80.110,256.340 80.042 C 256.343 79.973,256.863 78.907,257.495 77.674 C 258.126 76.440,258.607 75.371,258.562 75.299 C 258.517 75.226,256.236 75.167,253.493 75.167 L 248.505 75.167 248.002 74.171 C 247.512 73.199,247.500 73.119,247.500 70.729 L 247.500 68.281 248.375 67.475 L 249.250 66.669 269.938 66.668 L 290.626 66.667 291.404 67.612 L 292.183 68.558 292.133 71.029 C 292.077 73.807,292.204 74.074,292.914 72.672 C 293.308 71.894,293.333 71.690,293.333 69.279 L 293.333 66.714 292.653 65.940 L 291.972 65.167 278.333 65.167 C 270.831 65.167,264.575 65.121,264.430 65.066 C 263.954 64.883,263.667 65.503,269.579 53.917 C 270.889 51.350,273.216 46.775,274.751 43.750 C 276.287 40.725,278.348 36.675,279.333 34.750 C 281.011 31.470,285.216 23.193,289.359 15.014 C 290.353 13.050,291.167 11.311,291.167 11.149 C 291.167 10.986,291.233 10.812,291.314 10.762 C 292.173 10.231,291.146 8.958,290.000 9.132 M22.188 65.913 L 21.500 66.659 21.500 70.071 C 21.500 72.854,21.544 73.508,21.738 73.617 C 21.869 73.690,31.600 73.691,43.363 73.618 L 64.750 73.486 65.333 73.017 L 65.917 72.547 65.962 69.576 L 66.008 66.604 65.303 65.885 L 64.597 65.167 43.737 65.167 L 22.876 65.167 22.188 65.913 M73.000 65.769 L 72.333 66.372 72.333 84.427 L 72.333 102.482 73.277 103.157 L 74.221 103.833 77.180 103.833 L 80.139 103.833 80.820 103.180 L 81.500 102.526 81.500 84.449 L 81.500 66.372 80.833 65.769 L 80.166 65.167 76.917 65.167 L 73.668 65.167 73.000 65.769 M88.881 65.708 C 88.534 66.006,88.156 66.338,88.042 66.446 C 87.878 66.601,87.833 69.690,87.833 80.816 L 87.833 94.990 88.355 96.870 C 88.918 98.896,88.748 98.633,91.276 101.388 L 92.320 102.526 94.452 103.076 L 96.583 103.626 108.083 103.735 C 114.408 103.795,122.502 103.842,126.069 103.839 L 132.554 103.833 133.363 103.315 C 134.457 102.612,134.423 102.750,134.368 99.292 L 134.320 96.225 133.506 95.604 L 132.692 94.983 115.606 94.995 L 98.520 95.007 97.927 94.486 L 97.333 93.965 97.333 80.246 C 97.333 72.701,97.286 66.405,97.229 66.256 C 96.920 65.451,95.688 65.167,92.511 65.167 L 89.512 65.167 88.881 65.708 M304.819 66.412 C 302.620 67.524,301.580 68.303,301.886 68.608 C 301.929 68.651,302.874 68.231,303.984 67.675 L 306.004 66.662 323.294 66.706 L 340.583 66.750 342.348 67.606 C 344.383 68.594,345.651 70.063,346.407 72.311 L 346.779 73.417 347.556 73.467 C 348.538 73.532,348.561 73.308,347.802 71.117 C 346.861 68.400,345.821 67.135,343.677 66.100 L 341.917 65.250 324.583 65.216 L 307.250 65.182 304.819 66.412 M243.547 67.601 L 244.333 68.536 244.333 70.856 C 244.333 73.104,244.318 73.207,243.832 74.170 L 243.330 75.164 234.123 75.207 L 224.917 75.250 224.874 89.610 L 224.831 103.971 223.981 104.735 L 223.131 105.500 220.185 105.500 L 217.240 105.500 216.287 104.538 L 215.335 103.576 215.293 89.413 L 215.250 75.250 206.118 75.207 L 196.987 75.164 196.660 74.401 C 196.376 73.739,196.333 73.249,196.333 70.656 L 196.333 67.673 197.208 67.172 L 198.083 66.670 220.422 66.668 L 242.761 66.667 243.547 67.601 M308.375 76.040 L 307.833 76.599 307.833 85.846 L 307.833 95.094 308.796 96.047 L 309.760 97.000 328.369 97.000 L 346.978 97.000 347.088 97.348 C 347.262 97.896,347.021 98.826,346.403 99.995 C 345.761 101.209,345.722 101.366,346.097 101.222 C 346.593 101.031,348.333 97.202,348.333 96.301 L 348.333 95.500 329.736 95.500 L 311.138 95.500 310.070 94.475 L 309.003 93.450 308.960 84.466 L 308.917 75.481 308.375 76.040 M21.500 90.560 L 21.500 101.786 22.065 102.501 C 22.858 103.503,23.222 103.605,26.483 103.744 L 29.369 103.868 30.101 103.149 L 30.833 102.431 30.833 95.893 L 30.833 89.356 31.559 88.761 L 32.284 88.167 38.350 88.167 C 41.687 88.166,48.865 88.117,54.302 88.056 L 64.188 87.945 64.855 87.014 L 65.522 86.083 65.469 83.667 L 65.417 81.250 64.750 80.298 L 64.083 79.346 42.792 79.340 L 21.500 79.333 21.500 90.560 M250.057 95.500 C 249.894 95.775,249.703 96.000,249.631 96.000 C 249.559 96.000,249.500 96.112,249.500 96.250 C 249.500 96.471,251.859 96.501,269.708 96.505 L 289.917 96.511 291.000 96.969 L 292.083 97.427 292.167 100.455 L 292.250 103.484 292.795 103.219 L 293.340 102.955 293.295 99.369 L 293.250 95.783 292.250 95.400 L 291.250 95.017 270.801 95.009 L 250.352 95.000 250.057 95.500 " stroke="none" fill="#545454" fill-rule="evenodd"></path><path id="path1" d="M177.526 2.842 C 177.158 2.992,174.089 5.857,168.164 11.583 C 165.080 14.563,159.112 20.272,157.264 22.010 C 155.436 23.728,155.137 24.013,153.070 26.004 C 152.069 26.968,149.715 29.218,147.839 31.004 C 145.963 32.789,143.413 35.229,142.172 36.425 C 140.932 37.621,139.204 39.267,138.333 40.083 C 137.462 40.899,135.659 42.621,134.325 43.908 C 132.992 45.196,131.304 46.804,130.575 47.481 C 129.846 48.158,128.387 49.546,127.331 50.564 C 125.027 52.789,118.907 58.626,117.175 60.251 C 116.492 60.892,114.992 62.322,113.841 63.428 C 112.691 64.534,109.162 67.904,106.000 70.916 C 102.837 73.928,99.594 77.019,98.792 77.785 L 97.333 79.178 97.333 81.067 L 97.333 82.956 97.958 83.061 C 98.302 83.118,101.171 83.313,104.333 83.494 C 109.713 83.802,111.642 83.910,119.500 84.340 C 121.196 84.433,123.746 84.579,125.167 84.665 C 126.587 84.752,129.438 84.906,131.500 85.009 C 136.016 85.235,135.667 85.144,135.667 86.096 C 135.667 86.926,135.936 86.484,131.535 92.889 C 130.348 94.617,130.168 95.181,130.893 94.903 C 131.153 94.803,133.123 91.912,136.165 87.167 C 136.841 86.112,137.530 85.095,137.697 84.906 C 137.982 84.582,138.000 84.027,138.000 75.566 L 138.000 66.571 138.797 65.785 L 139.595 65.000 144.122 65.000 L 148.648 65.000 149.347 65.746 L 150.047 66.492 150.878 65.288 C 151.648 64.173,154.895 59.399,156.061 57.667 C 156.339 57.254,156.607 56.879,156.658 56.833 C 156.709 56.788,156.825 56.630,156.917 56.483 C 157.348 55.793,158.159 54.597,159.318 52.944 C 160.014 51.951,160.658 51.014,160.750 50.861 C 160.842 50.708,161.741 49.383,162.750 47.917 C 163.758 46.450,165.046 44.575,165.613 43.750 C 166.180 42.925,167.454 41.050,168.443 39.583 C 169.433 38.117,170.285 36.879,170.336 36.833 C 170.388 36.787,170.854 36.112,171.372 35.333 C 174.105 31.223,175.304 29.579,176.990 27.627 C 177.048 27.559,177.843 27.434,178.756 27.348 C 179.670 27.262,181.579 26.995,183.000 26.755 C 184.421 26.514,186.071 26.241,186.667 26.147 C 187.262 26.053,188.181 25.907,188.708 25.821 C 189.235 25.736,190.098 25.597,190.625 25.512 C 191.152 25.427,192.108 25.279,192.750 25.183 C 193.392 25.087,194.667 24.891,195.583 24.746 C 196.500 24.602,197.737 24.407,198.333 24.313 C 198.929 24.220,199.829 24.077,200.333 23.996 C 203.292 23.524,204.703 23.304,205.667 23.168 C 206.262 23.083,207.237 22.933,207.833 22.833 C 209.009 22.637,210.555 22.390,212.000 22.168 C 215.435 21.641,218.732 21.126,219.583 20.985 C 220.133 20.894,221.033 20.750,221.583 20.667 C 222.133 20.583,223.033 20.441,223.583 20.352 C 224.133 20.263,225.858 19.993,227.417 19.752 C 230.880 19.218,231.981 19.044,233.167 18.846 C 233.671 18.761,234.608 18.613,235.250 18.517 C 235.892 18.421,237.167 18.223,238.083 18.078 C 239.000 17.933,240.219 17.743,240.792 17.657 C 242.616 17.382,243.889 17.186,244.917 17.021 C 245.467 16.932,246.967 16.706,248.250 16.517 C 249.533 16.329,251.071 16.094,251.667 15.996 C 252.262 15.897,253.237 15.740,253.833 15.646 C 254.429 15.552,255.329 15.408,255.833 15.327 C 257.426 15.071,258.859 14.854,260.750 14.584 C 261.758 14.440,262.958 14.254,263.417 14.170 C 263.875 14.087,264.813 13.935,265.500 13.832 C 266.188 13.730,267.162 13.579,267.667 13.496 C 268.171 13.414,269.408 13.229,270.417 13.085 C 271.425 12.941,272.662 12.755,273.167 12.672 C 273.671 12.589,274.646 12.434,275.333 12.328 C 276.021 12.222,276.958 12.067,277.417 11.985 C 277.875 11.902,278.813 11.827,279.500 11.819 C 280.521 11.807,281.360 11.620,284.083 10.799 C 285.917 10.246,287.847 9.681,288.373 9.544 C 289.700 9.196,289.459 9.049,287.375 8.931 C 286.390 8.876,284.983 8.791,284.250 8.743 C 282.978 8.660,279.198 8.451,275.250 8.247 C 274.242 8.194,273.079 8.121,272.667 8.083 C 272.254 8.045,270.304 7.938,268.333 7.845 C 266.362 7.751,264.262 7.634,263.667 7.583 C 263.071 7.533,261.083 7.415,259.250 7.321 C 256.066 7.158,254.332 7.061,247.583 6.670 C 245.933 6.574,243.233 6.424,241.583 6.337 C 238.832 6.193,234.396 5.947,226.333 5.494 C 224.637 5.398,221.862 5.245,220.167 5.154 C 218.471 5.063,215.808 4.919,214.250 4.833 C 212.692 4.748,209.992 4.604,208.250 4.514 C 206.508 4.423,203.771 4.273,202.167 4.180 C 200.563 4.087,197.750 3.931,195.917 3.833 C 194.083 3.734,192.058 3.618,191.417 3.574 C 190.775 3.530,188.900 3.423,187.250 3.338 C 183.138 3.124,178.836 2.843,178.333 2.756 C 178.104 2.717,177.741 2.755,177.526 2.842 M291.500 10.240 C 291.500 10.464,291.425 10.693,291.333 10.750 C 291.242 10.807,291.167 10.986,291.167 11.149 C 291.167 11.311,290.353 13.050,289.359 15.014 C 285.216 23.193,281.011 31.470,279.333 34.750 C 278.348 36.675,276.287 40.725,274.751 43.750 C 273.216 46.775,270.889 51.350,269.579 53.917 C 265.005 62.880,264.167 64.573,264.173 64.827 C 264.177 64.968,264.651 64.146,265.228 63.000 C 265.805 61.854,267.388 58.742,268.747 56.083 C 271.790 50.129,272.000 49.706,272.000 49.515 C 272.000 49.430,272.057 49.336,272.127 49.306 C 272.197 49.275,273.087 47.600,274.106 45.583 C 276.471 40.900,280.623 32.723,283.669 26.750 C 286.505 21.188,291.160 11.886,291.343 11.417 C 291.497 11.020,291.833 9.975,291.833 9.892 C 291.833 9.860,291.758 9.833,291.667 9.833 C 291.575 9.833,291.500 10.016,291.500 10.240 M197.208 67.172 L 196.333 67.673 196.333 70.656 C 196.333 73.249,196.376 73.739,196.660 74.401 L 196.987 75.164 206.118 75.207 L 215.250 75.250 215.293 89.413 L 215.335 103.576 216.287 104.538 L 217.240 105.500 220.185 105.500 L 223.131 105.500 223.981 104.735 L 224.831 103.971 224.874 89.610 L 224.917 75.250 234.123 75.207 L 243.330 75.164 243.832 74.170 C 244.318 73.207,244.333 73.104,244.333 70.856 L 244.333 68.536 243.547 67.601 L 242.761 66.667 220.422 66.668 L 198.083 66.670 197.208 67.172 M248.375 67.475 L 247.500 68.281 247.500 70.729 C 247.500 73.119,247.512 73.199,248.002 74.171 L 248.505 75.167 253.493 75.167 C 256.236 75.167,258.517 75.226,258.562 75.299 C 258.607 75.371,258.126 76.440,257.495 77.674 C 256.863 78.907,256.343 79.988,256.340 80.075 C 256.325 80.433,256.699 79.808,257.822 77.597 C 258.470 76.322,259.043 75.234,259.097 75.181 C 259.151 75.127,266.394 75.046,275.193 75.000 L 291.191 74.917 291.679 74.033 C 292.152 73.176,292.167 73.081,292.167 70.844 L 292.167 68.538 291.396 67.602 L 290.626 66.667 269.938 66.668 L 249.250 66.669 248.375 67.475 M303.693 67.817 C 300.987 69.204,301.101 69.092,299.758 71.712 L 298.667 73.841 298.667 86.102 L 298.667 98.363 299.773 100.473 C 301.115 103.036,300.800 102.723,303.417 104.080 C 304.608 104.698,305.679 105.281,305.796 105.376 C 305.940 105.492,308.374 105.513,313.296 105.441 C 317.304 105.381,325.151 105.285,330.734 105.225 L 340.884 105.117 342.630 104.059 C 343.591 103.476,344.430 103.000,344.496 103.000 C 344.736 103.000,345.443 102.069,345.762 101.333 C 345.821 101.196,346.118 100.596,346.421 100.000 C 347.025 98.811,347.258 97.884,347.088 97.348 L 346.978 97.000 328.359 97.000 L 309.740 97.000 308.786 96.037 L 307.833 95.074 307.833 85.822 L 307.833 76.569 308.551 75.865 L 309.268 75.161 327.926 75.162 C 338.187 75.163,346.685 75.098,346.810 75.019 C 347.371 74.662,346.376 71.692,345.072 69.832 C 344.124 68.478,344.092 68.453,342.348 67.606 L 340.583 66.750 323.250 66.713 L 305.917 66.677 303.693 67.817 M248.002 82.829 C 247.515 83.794,247.500 83.894,247.500 86.148 L 247.500 88.473 248.257 89.361 C 248.991 90.224,249.044 90.252,250.030 90.333 L 251.047 90.417 247.835 96.750 C 238.758 114.648,239.913 112.568,238.716 113.166 C 238.282 113.382,238.018 113.589,238.128 113.626 C 238.238 113.663,238.536 113.553,238.789 113.382 C 239.043 113.211,239.438 112.976,239.667 112.859 C 239.971 112.704,240.523 111.762,241.715 109.365 C 242.613 107.560,244.477 103.871,245.857 101.167 C 247.238 98.462,248.626 95.725,248.941 95.083 C 249.257 94.442,249.602 93.767,249.707 93.583 C 250.134 92.840,250.999 91.074,250.999 90.946 C 251.002 90.326,250.772 90.333,270.740 90.333 L 290.003 90.333 290.293 89.974 C 290.453 89.776,290.827 89.336,291.125 88.995 L 291.667 88.376 291.665 85.980 C 291.664 83.621,291.656 83.569,291.162 82.708 L 290.660 81.833 269.582 81.833 L 248.505 81.833 248.002 82.829 M248.968 96.792 C 248.830 96.952,248.481 97.434,248.192 97.863 L 247.667 98.643 247.676 101.363 L 247.685 104.083 248.756 104.794 L 249.828 105.504 270.122 105.460 L 290.417 105.417 291.250 104.905 L 292.083 104.393 292.083 100.910 L 292.083 97.427 291.000 96.969 L 289.917 96.511 269.567 96.505 C 250.390 96.500,249.204 96.517,248.968 96.792 M120.977 108.375 C 119.268 110.873,116.988 114.229,115.910 115.833 C 114.832 117.438,113.905 118.787,113.850 118.833 C 113.795 118.879,113.675 119.042,113.583 119.195 C 113.492 119.349,112.906 120.230,112.282 121.155 C 111.262 122.666,111.153 122.906,111.199 123.542 L 111.250 124.250 112.333 124.303 C 112.929 124.332,113.848 124.276,114.375 124.178 C 116.213 123.836,117.956 123.557,122.250 122.917 C 123.808 122.684,125.496 122.426,126.000 122.343 C 127.419 122.109,130.090 121.689,134.000 121.086 C 135.512 120.853,137.228 120.577,137.812 120.475 C 138.397 120.372,139.320 120.276,139.863 120.262 C 140.844 120.236,140.854 120.230,141.259 119.517 C 141.837 118.499,141.761 118.477,140.172 119.198 C 139.763 119.384,138.994 119.602,138.464 119.684 C 137.934 119.766,137.069 119.906,136.542 119.994 C 135.583 120.155,134.059 120.398,132.333 120.666 C 129.207 121.151,126.343 121.607,124.958 121.839 C 123.571 122.072,122.247 122.285,120.917 122.488 C 120.275 122.586,119.037 122.782,118.167 122.923 C 113.840 123.625,112.167 123.743,112.167 123.345 C 112.167 122.762,113.106 121.151,115.333 117.917 C 119.218 112.271,119.988 111.147,121.263 109.250 C 123.394 106.081,123.742 105.585,123.873 105.528 C 123.943 105.497,124.000 105.396,124.000 105.302 C 124.000 105.208,124.188 104.909,124.417 104.636 C 124.932 104.024,124.942 103.833,124.458 103.834 C 124.155 103.834,123.492 104.699,120.977 108.375 M230.917 115.667 C 230.795 115.864,230.958 115.864,231.417 115.667 C 231.738 115.529,231.737 115.523,231.385 115.512 C 231.184 115.505,230.973 115.575,230.917 115.667 M184.167 129.333 C 184.167 129.542,184.344 129.542,184.667 129.333 C 184.869 129.203,184.845 129.171,184.542 129.169 C 184.335 129.168,184.167 129.242,184.167 129.333 M179.000 130.833 C 178.778 130.977,178.778 130.995,179.000 130.995 C 179.137 130.995,179.362 130.922,179.500 130.833 C 179.722 130.690,179.722 130.672,179.500 130.672 C 179.362 130.672,179.137 130.744,179.000 130.833 M143.667 141.167 C 143.444 141.310,143.444 141.328,143.667 141.328 C 143.804 141.328,144.029 141.256,144.167 141.167 C 144.389 141.023,144.389 141.005,144.167 141.005 C 144.029 141.005,143.804 141.078,143.667 141.167 M132.167 144.500 C 131.944 144.644,131.944 144.662,132.167 144.662 C 132.304 144.662,132.529 144.589,132.667 144.500 C 132.889 144.356,132.889 144.338,132.667 144.338 C 132.529 144.338,132.304 144.411,132.167 144.500 " stroke="none" fill="#f92b2b" fill-rule="evenodd"></path><path id="path2" d="M0.000 75.667 L 0.000 151.333 200.000 151.333 L 400.000 151.333 400.000 75.667 L 400.000 0.000 200.000 0.000 L 0.000 0.000 0.000 75.667 M189.333 3.228 C 193.504 3.464,198.192 3.734,199.750 3.826 C 203.263 4.035,207.978 4.297,211.917 4.504 C 218.436 4.845,221.430 5.008,225.667 5.253 C 228.096 5.393,231.508 5.583,233.250 5.675 C 240.529 6.060,242.472 6.164,246.833 6.408 C 249.354 6.549,252.654 6.738,254.167 6.828 C 255.679 6.918,258.942 7.104,261.417 7.241 C 265.726 7.479,268.650 7.648,274.667 8.005 C 276.179 8.095,280.379 8.321,284.000 8.508 C 293.459 8.997,293.154 8.618,289.626 15.500 C 288.756 17.196,286.768 21.096,285.208 24.167 C 277.936 38.479,271.370 51.386,266.059 61.810 C 265.202 63.493,264.500 64.899,264.500 64.935 C 264.500 64.971,270.666 65.000,278.203 65.000 L 291.905 65.000 292.703 65.785 L 293.500 66.571 293.500 69.208 C 293.500 72.086,293.231 73.092,292.298 73.703 C 292.083 73.844,291.762 74.230,291.583 74.562 L 291.258 75.165 275.254 75.208 L 259.250 75.250 258.049 77.583 C 257.388 78.867,256.844 79.973,256.840 80.042 C 256.837 80.110,264.769 80.167,274.467 80.167 L 292.101 80.167 292.551 80.999 C 292.982 81.797,293.000 81.932,293.000 84.332 L 293.000 86.833 292.379 87.708 C 292.037 88.189,291.568 88.772,291.337 89.004 C 291.106 89.235,290.759 89.647,290.565 89.920 L 290.214 90.417 270.908 90.458 C 260.289 90.480,251.550 90.555,251.487 90.624 C 251.295 90.836,247.833 97.719,247.833 97.890 C 247.833 97.978,248.071 97.720,248.360 97.317 C 248.650 96.913,248.947 96.559,249.020 96.530 C 249.092 96.501,249.418 96.107,249.742 95.655 L 250.333 94.833 270.708 94.830 L 291.083 94.828 292.295 95.287 L 293.506 95.746 293.461 99.414 L 293.417 103.083 292.792 103.416 C 292.304 103.677,292.167 103.850,292.167 104.206 C 292.167 104.584,292.027 104.732,291.339 105.081 L 290.511 105.500 269.997 105.500 L 249.484 105.500 248.492 104.801 L 247.500 104.101 247.500 101.467 C 247.500 100.019,247.444 98.835,247.375 98.836 C 247.306 98.838,245.750 101.808,243.917 105.436 C 242.083 109.064,240.455 112.247,240.297 112.511 C 239.993 113.020,238.609 113.788,237.333 114.156 C 236.921 114.275,236.396 114.436,236.167 114.514 C 235.797 114.640,225.523 117.649,224.250 118.004 C 223.975 118.081,223.075 118.343,222.250 118.586 C 220.477 119.108,219.949 119.260,219.167 119.474 C 218.846 119.562,217.808 119.869,216.860 120.156 C 215.912 120.444,214.750 120.784,214.277 120.912 C 213.804 121.040,210.829 121.907,207.667 122.838 C 204.504 123.769,201.692 124.592,201.417 124.667 C 201.142 124.742,197.167 125.903,192.583 127.249 C 188.000 128.594,183.987 129.768,183.667 129.857 C 182.990 130.045,182.623 130.151,180.583 130.752 C 179.758 130.995,178.821 131.267,178.500 131.357 C 177.468 131.644,177.039 131.769,169.167 134.083 C 161.751 136.263,161.029 136.474,159.792 136.817 C 159.494 136.899,158.462 137.200,157.500 137.484 C 156.537 137.769,155.450 138.085,155.083 138.187 C 154.717 138.289,154.229 138.436,154.000 138.514 C 153.568 138.661,142.965 141.762,142.083 141.999 C 141.808 142.073,140.796 142.366,139.833 142.651 C 138.871 142.935,137.821 143.242,137.500 143.332 C 137.179 143.422,136.467 143.634,135.917 143.805 C 135.367 143.975,133.789 144.437,132.410 144.831 L 129.903 145.549 129.270 145.248 C 128.198 144.740,127.837 145.624,134.169 133.250 C 141.266 119.381,140.952 120.198,139.066 120.498 C 138.434 120.598,137.448 120.752,136.875 120.840 C 133.994 121.282,133.515 121.358,132.667 121.506 C 131.638 121.685,125.624 122.621,124.083 122.842 C 123.533 122.921,122.633 123.057,122.083 123.145 C 121.533 123.232,119.583 123.536,117.750 123.819 C 115.917 124.103,114.000 124.410,113.490 124.503 C 110.851 124.982,110.271 123.883,111.860 121.417 C 112.333 120.683,112.764 120.046,112.818 120.000 C 112.872 119.954,113.366 119.242,113.916 118.417 C 114.466 117.592,116.884 114.048,119.291 110.542 C 121.698 107.036,123.667 104.130,123.667 104.084 C 123.667 104.038,117.723 104.001,110.458 104.002 L 97.250 104.004 94.850 103.377 C 92.567 102.780,92.414 102.714,91.684 101.998 C 90.034 100.381,88.710 98.859,88.623 98.480 C 88.573 98.262,88.338 97.408,88.101 96.583 L 87.671 95.083 87.669 80.861 L 87.667 66.639 88.531 65.820 L 89.395 65.000 92.486 65.000 C 95.535 65.000,95.590 65.006,96.455 65.458 L 97.333 65.917 97.333 72.306 C 97.333 76.027,97.396 78.671,97.484 78.639 C 97.656 78.575,98.938 77.382,102.833 73.662 C 104.346 72.217,105.846 70.795,106.167 70.501 C 106.487 70.208,107.577 69.168,108.588 68.192 C 109.599 67.216,111.693 65.217,113.242 63.750 C 114.790 62.283,116.404 60.746,116.829 60.333 C 117.253 59.921,118.235 58.983,119.012 58.250 C 120.645 56.707,122.879 54.578,125.835 51.747 C 128.119 49.559,133.813 44.130,134.899 43.104 C 135.276 42.749,136.971 41.130,138.667 39.507 C 140.362 37.884,142.125 36.201,142.583 35.766 C 144.502 33.946,148.603 30.035,149.239 29.417 C 150.065 28.615,156.575 22.389,157.081 21.917 C 157.837 21.212,160.676 18.507,162.750 16.516 C 165.277 14.090,166.885 12.553,171.333 8.311 C 173.121 6.607,175.183 4.635,175.917 3.930 L 177.250 2.648 179.500 2.722 C 180.737 2.764,185.162 2.991,189.333 3.228 M277.083 12.241 C 276.442 12.353,275.279 12.535,274.500 12.646 C 273.721 12.756,272.671 12.918,272.167 13.005 C 271.004 13.206,266.310 13.936,264.667 14.171 C 263.979 14.270,263.004 14.419,262.500 14.502 C 260.705 14.799,256.815 15.399,253.917 15.827 C 252.633 16.016,251.171 16.244,250.667 16.333 C 250.162 16.423,247.987 16.760,245.833 17.083 C 243.679 17.406,241.504 17.739,241.000 17.823 C 239.635 18.049,237.022 18.460,233.000 19.081 C 231.487 19.314,229.800 19.577,229.250 19.665 C 228.700 19.753,227.537 19.937,226.667 20.074 C 225.796 20.211,224.108 20.478,222.917 20.666 C 221.725 20.855,220.225 21.087,219.583 21.182 C 218.942 21.276,218.004 21.423,217.500 21.508 C 215.871 21.783,208.353 22.967,206.917 23.174 C 206.367 23.254,205.467 23.391,204.917 23.479 C 204.367 23.567,202.417 23.871,200.583 24.155 C 198.750 24.439,196.838 24.742,196.333 24.829 C 195.829 24.916,194.929 25.064,194.333 25.157 C 193.737 25.251,192.313 25.477,191.167 25.659 C 190.021 25.842,188.521 26.074,187.833 26.174 C 185.849 26.465,184.941 26.612,181.794 27.156 C 180.168 27.437,178.469 27.667,178.018 27.667 L 177.198 27.667 176.009 29.125 C 175.355 29.927,172.486 33.996,169.634 38.167 C 166.782 42.337,163.806 46.688,163.021 47.833 C 162.236 48.979,161.142 50.592,160.590 51.417 C 160.039 52.242,159.541 52.954,159.485 53.000 C 159.429 53.046,159.172 53.421,158.915 53.833 C 158.657 54.246,156.656 57.189,154.469 60.373 C 152.281 63.558,150.449 66.272,150.398 66.405 C 150.300 66.660,150.612 67.227,152.838 70.833 C 156.242 76.350,157.925 79.101,159.033 80.958 C 159.484 81.715,159.905 82.330,159.968 82.327 C 160.031 82.323,161.177 80.129,162.514 77.452 C 164.854 72.766,174.639 53.359,177.662 47.407 C 178.468 45.821,179.270 44.312,179.446 44.054 C 179.621 43.795,179.942 43.227,180.159 42.790 C 180.588 41.929,180.915 41.778,184.383 40.844 C 185.043 40.666,186.483 40.247,187.583 39.913 C 188.683 39.579,190.296 39.092,191.167 38.832 C 192.037 38.571,193.631 38.090,194.708 37.762 C 195.785 37.435,197.548 36.899,198.625 36.571 C 199.702 36.243,201.296 35.761,202.167 35.500 C 203.037 35.239,204.612 34.762,205.667 34.441 C 209.858 33.165,211.651 32.622,213.167 32.167 C 214.037 31.905,215.650 31.416,216.750 31.080 C 217.850 30.744,218.975 30.407,219.250 30.332 C 219.525 30.256,221.137 29.769,222.833 29.249 C 224.529 28.728,227.004 27.977,228.333 27.579 C 229.662 27.181,232.137 26.431,233.833 25.912 C 235.529 25.393,238.042 24.632,239.417 24.221 C 240.792 23.810,242.367 23.335,242.917 23.165 C 245.880 22.254,247.973 21.620,248.417 21.498 C 248.976 21.345,251.733 20.510,254.750 19.580 C 255.850 19.241,257.462 18.752,258.333 18.494 C 259.987 18.004,261.896 17.424,267.917 15.583 C 269.017 15.247,270.142 14.909,270.417 14.833 C 270.692 14.757,271.779 14.432,272.833 14.112 C 273.887 13.791,275.688 13.248,276.833 12.905 C 279.766 12.028,279.870 11.752,277.083 12.241 M65.394 65.826 L 66.167 66.652 66.167 69.563 L 66.167 72.474 65.502 73.043 L 64.837 73.612 52.710 73.722 C 29.298 73.936,21.706 73.885,21.506 73.511 C 21.404 73.320,21.333 71.855,21.333 69.920 L 21.333 66.652 22.106 65.826 L 22.879 65.000 43.750 65.000 L 64.621 65.000 65.394 65.826 M81.061 65.826 L 81.833 66.652 81.833 84.489 L 81.833 102.325 81.035 103.163 L 80.236 104.000 77.241 104.000 L 74.246 104.000 73.331 103.396 C 72.828 103.064,72.323 102.675,72.208 102.531 C 72.045 102.326,72.000 98.457,72.000 84.461 L 72.000 66.652 72.773 65.826 L 73.546 65.000 76.917 65.000 L 80.288 65.000 81.061 65.826 M342.776 65.510 C 345.460 66.710,345.525 66.757,346.520 68.213 C 348.332 70.865,348.963 73.538,347.800 73.635 C 347.193 73.685,347.183 73.697,347.134 74.468 L 347.083 75.250 328.167 75.333 L 309.250 75.417 309.207 84.410 L 309.164 93.404 310.118 94.369 L 311.073 95.333 329.786 95.333 L 348.500 95.333 348.500 96.243 C 348.500 97.316,346.813 100.954,346.098 101.422 C 345.879 101.566,345.606 101.911,345.491 102.189 C 345.286 102.684,344.860 103.014,343.333 103.865 C 342.921 104.095,342.171 104.538,341.667 104.850 L 340.750 105.417 323.417 105.521 L 306.083 105.625 304.500 104.829 C 303.629 104.391,302.445 103.781,301.868 103.475 L 300.820 102.917 299.660 100.636 L 298.500 98.356 298.500 86.052 L 298.500 73.748 299.594 71.594 C 300.282 70.239,300.931 69.205,301.344 68.804 C 301.705 68.454,302.000 68.063,302.000 67.935 C 302.000 67.723,302.530 67.413,305.917 65.650 L 307.083 65.043 324.359 65.021 L 341.636 65.000 342.776 65.510 M64.913 80.290 L 65.667 81.413 65.667 83.779 L 65.667 86.146 65.042 87.065 C 64.698 87.570,64.332 88.019,64.227 88.062 C 64.123 88.106,56.897 88.196,48.168 88.263 L 32.298 88.385 31.774 88.815 C 31.486 89.051,31.195 89.321,31.128 89.414 C 31.060 89.507,31.004 92.491,31.003 96.044 L 31.000 102.506 30.220 103.253 L 29.440 104.000 26.845 103.998 C 23.360 103.994,22.321 103.615,21.591 102.076 C 21.322 101.508,21.180 79.542,21.444 79.278 C 21.506 79.217,31.141 79.167,42.858 79.167 L 64.160 79.167 64.913 80.290 M147.694 87.631 C 147.584 91.546,147.495 96.424,147.497 98.469 C 147.500 102.612,147.515 102.552,146.337 103.398 L 145.499 104.000 142.820 104.000 L 140.140 104.000 139.252 103.411 C 138.764 103.087,138.280 102.720,138.176 102.595 C 138.042 102.433,137.991 99.919,137.997 93.768 C 138.002 88.783,137.943 85.167,137.856 85.167 C 137.773 85.167,136.651 86.798,135.362 88.792 C 134.072 90.785,132.676 92.900,132.259 93.491 C 131.338 94.794,131.335 94.833,132.144 94.833 C 132.758 94.833,133.070 95.009,134.375 96.089 C 134.634 96.303,134.666 96.676,134.664 99.373 C 134.661 102.773,134.726 102.537,133.561 103.380 L 132.705 104.000 128.894 104.000 L 125.083 104.000 121.750 108.865 C 119.917 111.540,117.641 114.859,116.694 116.240 C 113.960 120.223,112.911 121.865,112.613 122.625 L 112.336 123.333 113.489 123.333 C 114.123 123.333,115.003 123.263,115.446 123.177 C 115.888 123.091,116.737 122.942,117.333 122.847 C 119.972 122.424,122.873 121.965,124.333 121.739 C 125.204 121.605,126.329 121.422,126.833 121.332 C 127.337 121.243,128.725 121.017,129.917 120.830 C 131.108 120.643,132.796 120.377,133.667 120.239 C 134.537 120.101,135.775 119.910,136.417 119.814 C 139.039 119.420,141.063 118.795,141.691 118.184 C 141.842 118.037,143.220 115.442,144.754 112.417 C 147.415 107.171,150.245 101.604,153.551 95.112 C 154.898 92.467,155.041 92.104,154.850 91.798 C 154.732 91.609,154.504 91.221,154.344 90.935 C 154.183 90.650,153.604 89.704,153.056 88.833 C 150.853 85.335,149.500 83.146,149.500 83.084 C 149.500 83.048,149.139 82.454,148.697 81.765 L 147.894 80.511 147.694 87.631 M97.333 88.491 L 97.333 93.699 97.958 94.263 L 98.583 94.827 114.312 94.788 L 130.040 94.750 132.770 90.789 C 135.174 87.301,135.500 86.749,135.500 86.167 C 135.500 85.279,136.692 85.428,124.833 84.833 C 117.825 84.481,108.089 83.945,103.583 83.663 C 102.117 83.572,100.110 83.449,99.125 83.390 L 97.333 83.283 97.333 88.491 " stroke="none" fill="#fbfbfb" fill-rule="evenodd"></path><path id="path3" d="M289.833 9.000 C 289.486 9.112,289.531 9.132,290.104 9.124 C 290.560 9.117,290.966 9.239,291.312 9.485 C 291.599 9.689,291.833 9.777,291.833 9.681 C 291.833 9.507,290.631 8.818,290.382 8.850 C 290.309 8.859,290.063 8.927,289.833 9.000 M279.985 11.904 C 279.946 11.943,279.015 12.249,277.916 12.586 C 273.000 14.090,265.550 16.353,260.917 17.750 C 259.908 18.054,256.571 19.065,253.500 19.996 C 250.429 20.928,246.792 22.027,245.417 22.440 C 244.042 22.852,242.467 23.328,241.917 23.498 C 241.367 23.668,239.792 24.144,238.417 24.557 C 235.664 25.384,232.509 26.342,230.833 26.859 C 230.237 27.044,229.525 27.257,229.250 27.333 C 228.975 27.409,227.869 27.741,226.792 28.069 C 223.254 29.149,220.941 29.851,219.333 30.333 C 217.726 30.816,216.786 31.101,210.250 33.084 C 208.233 33.696,205.758 34.446,204.750 34.751 C 202.864 35.321,197.058 37.079,193.667 38.108 C 192.612 38.428,191.112 38.876,190.333 39.104 C 189.554 39.332,188.129 39.768,187.167 40.072 C 186.204 40.377,184.941 40.764,184.359 40.933 C 183.777 41.101,183.375 41.264,183.464 41.294 C 183.554 41.324,184.405 41.112,185.355 40.824 C 186.306 40.536,187.308 40.241,187.583 40.170 C 187.858 40.098,188.421 39.928,188.833 39.792 C 189.246 39.655,190.033 39.414,190.583 39.255 C 192.226 38.781,192.733 38.627,193.083 38.494 C 193.267 38.424,193.979 38.203,194.667 38.003 C 196.599 37.440,198.658 36.821,199.667 36.499 C 200.171 36.338,201.033 36.078,201.583 35.920 C 203.145 35.472,203.723 35.297,204.083 35.163 C 204.267 35.094,204.717 34.955,205.083 34.854 C 205.775 34.663,208.271 33.911,209.000 33.674 C 209.229 33.600,209.754 33.446,210.167 33.334 C 210.579 33.221,211.067 33.070,211.250 32.999 C 211.433 32.927,212.258 32.671,213.083 32.430 C 213.908 32.188,215.071 31.843,215.667 31.663 C 218.607 30.773,219.618 30.465,220.000 30.341 C 220.229 30.266,220.717 30.122,221.083 30.020 C 221.450 29.918,222.463 29.616,223.333 29.349 C 224.204 29.082,225.554 28.670,226.333 28.434 C 227.112 28.198,228.350 27.822,229.083 27.599 C 229.817 27.375,230.979 27.026,231.667 26.823 C 232.354 26.620,233.442 26.286,234.083 26.081 C 234.725 25.876,235.850 25.541,236.583 25.337 C 237.317 25.133,238.067 24.906,238.250 24.833 C 238.433 24.760,239.146 24.538,239.833 24.339 C 240.521 24.140,241.271 23.913,241.500 23.835 C 241.729 23.757,242.367 23.566,242.917 23.410 C 243.467 23.254,244.329 22.995,244.833 22.834 C 247.047 22.129,248.618 21.667,248.804 21.667 C 248.914 21.667,249.135 21.599,249.294 21.516 C 249.453 21.434,249.921 21.273,250.333 21.161 C 250.746 21.048,251.496 20.824,252.000 20.663 C 253.034 20.333,254.426 19.918,255.417 19.646 C 255.783 19.545,256.233 19.403,256.417 19.332 C 257.040 19.089,259.602 18.333,259.804 18.333 C 259.914 18.333,260.135 18.266,260.294 18.183 C 260.453 18.100,260.883 17.951,261.250 17.852 C 261.617 17.752,262.779 17.405,263.833 17.080 C 264.887 16.754,266.050 16.407,266.417 16.308 C 266.783 16.210,267.233 16.070,267.417 15.998 C 267.600 15.926,268.313 15.704,269.000 15.504 C 270.280 15.132,271.489 14.768,274.417 13.871 C 275.333 13.590,276.533 13.235,277.083 13.083 C 277.633 12.930,278.214 12.737,278.373 12.653 C 278.532 12.569,278.846 12.500,279.071 12.500 C 279.296 12.500,279.527 12.425,279.583 12.333 C 279.640 12.242,279.832 12.167,280.010 12.167 C 280.188 12.167,280.333 12.092,280.333 12.000 C 280.333 11.832,280.116 11.772,279.985 11.904 M181.667 41.723 C 180.585 42.083,180.582 42.085,179.939 43.314 C 179.584 43.990,179.370 44.497,179.462 44.440 C 179.555 44.383,179.865 43.849,180.153 43.253 C 180.561 42.406,180.773 42.148,181.129 42.066 C 181.854 41.898,183.167 41.468,183.167 41.397 C 183.167 41.273,182.739 41.366,181.667 41.723 M177.917 47.167 C 177.228 48.542,176.702 49.667,176.748 49.667 C 176.794 49.667,177.395 48.542,178.083 47.167 C 178.772 45.792,179.298 44.667,179.252 44.667 C 179.206 44.667,178.605 45.792,177.917 47.167 M173.767 55.349 C 173.395 56.096,173.439 56.188,173.857 55.535 C 174.050 55.233,174.169 54.947,174.122 54.899 C 174.074 54.852,173.914 55.054,173.767 55.349 M171.629 59.542 C 169.783 63.194,169.556 63.677,169.810 63.417 C 170.124 63.094,173.566 56.167,173.412 56.167 C 173.370 56.167,172.567 57.685,171.629 59.542 M22.201 65.715 C 21.816 66.108,21.500 66.481,21.500 66.544 C 21.500 66.607,21.810 66.323,22.188 65.913 L 22.876 65.167 43.723 65.167 L 64.571 65.167 65.327 65.875 L 66.083 66.583 65.340 65.792 L 64.597 65.000 43.750 65.000 L 22.903 65.000 22.201 65.715 M72.867 65.715 L 72.165 66.431 72.208 84.486 L 72.250 102.541 72.833 102.958 L 73.417 103.376 72.873 102.896 L 72.330 102.417 72.332 84.394 L 72.333 66.372 73.000 65.769 L 73.668 65.167 76.917 65.167 L 80.166 65.167 80.875 65.784 L 81.583 66.401 80.925 65.701 L 80.266 65.000 76.918 65.000 L 73.569 65.000 72.867 65.715 M88.824 65.617 L 88.250 66.233 88.881 65.700 L 89.512 65.167 92.512 65.167 C 95.194 65.167,95.583 65.202,96.173 65.503 C 96.536 65.689,96.833 65.803,96.833 65.757 C 96.833 65.246,95.409 65.000,92.456 65.000 L 89.399 65.000 88.824 65.617 M167.250 68.202 C 159.266 83.977,160.066 82.524,159.651 81.998 L 159.324 81.583 159.518 82.032 C 159.916 82.955,160.091 82.736,162.050 78.864 C 163.102 76.785,165.099 72.842,166.487 70.103 C 167.876 67.364,168.981 65.092,168.944 65.055 C 168.907 65.018,168.145 66.435,167.250 68.202 M278.195 65.125 L 291.973 65.169 292.653 65.941 L 293.333 66.714 293.333 69.279 C 293.333 71.978,292.992 73.325,292.250 73.553 C 292.064 73.611,292.075 73.625,292.288 73.606 C 293.091 73.533,293.492 72.107,293.496 69.310 L 293.500 66.703 292.735 65.851 L 291.969 65.000 278.193 65.041 L 264.417 65.081 278.195 65.125 M304.808 66.252 C 302.457 67.440,301.667 68.053,301.667 68.690 C 301.667 68.812,301.803 68.650,301.969 68.331 C 302.224 67.840,302.659 67.550,304.760 66.466 L 307.250 65.181 324.380 65.174 C 339.308 65.168,341.588 65.199,342.114 65.419 C 342.446 65.558,342.747 65.642,342.783 65.606 C 343.335 65.054,341.672 65.000,324.372 65.009 L 307.250 65.018 304.808 66.252 M344.690 66.585 C 345.398 66.954,347.021 68.916,347.377 69.833 C 347.446 70.013,347.477 70.021,347.487 69.861 C 347.518 69.326,345.588 66.844,344.877 66.504 C 343.892 66.034,343.750 66.095,344.690 66.585 M81.580 84.500 C 81.580 94.446,81.600 98.515,81.625 93.542 C 81.649 88.569,81.649 80.431,81.625 75.458 C 81.600 70.485,81.580 74.554,81.580 84.500 M87.746 80.917 C 87.746 88.800,87.767 92.001,87.792 88.029 C 87.817 84.058,87.817 77.608,87.792 73.696 C 87.767 69.784,87.746 73.033,87.746 80.917 M150.170 66.792 C 150.172 66.860,150.327 67.104,150.514 67.333 L 150.853 67.750 150.589 67.208 C 150.338 66.694,150.162 66.519,150.170 66.792 M151.896 69.583 C 152.031 69.858,152.263 70.233,152.412 70.417 C 152.665 70.728,152.667 70.718,152.437 70.250 C 152.302 69.975,152.070 69.600,151.921 69.417 C 151.668 69.105,151.666 69.116,151.896 69.583 M347.541 70.375 C 347.584 70.490,347.749 70.982,347.909 71.469 C 348.070 71.956,348.230 72.326,348.266 72.290 C 348.350 72.205,347.663 70.167,347.550 70.167 C 347.503 70.167,347.499 70.260,347.541 70.375 M152.915 71.270 C 153.072 71.510,153.459 72.148,153.775 72.687 C 154.323 73.621,154.730 74.079,154.313 73.292 C 153.931 72.570,152.803 70.833,152.716 70.833 C 152.668 70.833,152.757 71.030,152.915 71.270 M65.341 73.005 L 64.766 73.497 56.591 73.542 L 48.417 73.587 56.597 73.627 L 64.778 73.667 65.431 73.090 C 65.790 72.773,66.046 72.514,66.000 72.514 C 65.954 72.514,65.658 72.735,65.341 73.005 M348.356 72.949 C 348.334 73.461,348.302 73.484,347.542 73.544 L 346.750 73.607 347.547 73.637 C 348.406 73.669,348.586 73.504,348.453 72.804 C 348.395 72.504,348.374 72.537,348.356 72.949 M26.553 73.792 C 29.012 73.818,32.987 73.818,35.387 73.792 C 37.787 73.766,35.775 73.744,30.917 73.744 C 26.058 73.744,24.095 73.766,26.553 73.792 M42.042 73.791 C 43.210 73.820,45.123 73.820,46.292 73.791 C 47.460 73.763,46.504 73.739,44.167 73.739 C 41.829 73.739,40.873 73.763,42.042 73.791 M154.591 74.000 C 154.972 74.680,155.853 76.000,155.927 76.000 C 156.026 76.000,154.874 74.156,154.624 73.917 C 154.506 73.803,154.495 73.829,154.591 74.000 M309.040 84.422 L 309.000 93.427 310.042 94.422 L 311.083 95.417 310.126 94.413 L 309.170 93.410 309.125 84.413 L 309.080 75.417 309.040 84.422 M156.001 76.206 C 156.000 76.363,157.004 78.000,157.102 78.000 C 157.142 78.000,157.064 77.794,156.929 77.542 C 156.579 76.891,156.002 76.061,156.001 76.206 M157.748 79.103 C 157.905 79.344,158.292 79.981,158.608 80.520 C 158.924 81.059,159.223 81.500,159.272 81.500 C 159.320 81.500,159.193 81.219,158.989 80.875 C 158.172 79.500,157.628 78.667,157.547 78.667 C 157.500 78.667,157.590 78.863,157.748 79.103 M32.125 79.292 C 38.015 79.316,47.652 79.316,53.542 79.292 C 59.431 79.267,54.612 79.248,42.833 79.248 C 31.054 79.248,26.235 79.267,32.125 79.292 M64.777 80.370 L 65.417 81.240 65.469 83.662 L 65.522 86.083 64.835 87.042 L 64.148 88.000 57.532 88.040 L 50.917 88.079 57.485 88.125 C 64.870 88.176,64.237 88.283,65.165 86.836 C 65.662 86.062,65.667 86.031,65.667 83.721 L 65.667 81.388 64.991 80.444 C 64.619 79.925,64.275 79.500,64.227 79.500 C 64.178 79.500,64.426 79.892,64.777 80.370 M292.102 80.589 C 292.254 80.821,292.411 80.978,292.451 80.938 C 292.550 80.839,292.118 80.167,291.956 80.167 C 291.884 80.167,291.950 80.357,292.102 80.589 M147.590 83.375 C 147.527 85.048,147.503 87.504,147.535 88.833 C 147.586 90.960,147.600 90.800,147.650 87.500 C 147.680 85.438,147.753 83.001,147.811 82.085 L 147.917 80.419 148.632 81.626 C 149.026 82.290,149.388 82.833,149.438 82.833 C 149.522 82.833,149.306 82.449,148.383 80.958 C 147.770 79.969,147.709 80.154,147.590 83.375 M292.657 81.447 C 292.757 81.653,292.833 82.894,292.833 84.295 L 292.833 86.779 292.133 87.765 C 291.747 88.307,291.556 88.650,291.707 88.529 C 291.858 88.407,292.211 87.951,292.491 87.514 L 293.000 86.721 293.000 84.226 C 293.000 82.218,292.949 81.667,292.741 81.407 C 292.490 81.094,292.488 81.096,292.657 81.447 M150.563 84.750 C 150.698 85.025,150.930 85.400,151.079 85.583 C 151.332 85.895,151.334 85.884,151.104 85.417 C 150.969 85.142,150.737 84.767,150.588 84.583 C 150.335 84.272,150.333 84.282,150.563 84.750 M138.000 93.467 L 138.083 102.250 138.126 93.593 C 138.150 88.832,138.113 84.879,138.043 84.810 C 137.974 84.740,137.954 88.636,138.000 93.467 M151.812 86.750 C 151.902 86.933,152.098 87.233,152.247 87.417 L 152.518 87.750 152.355 87.417 C 152.265 87.233,152.069 86.933,151.920 86.750 L 151.648 86.417 151.812 86.750 M152.598 88.042 C 153.109 88.943,154.218 90.667,154.286 90.667 C 154.333 90.667,154.264 90.498,154.133 90.292 C 154.002 90.085,153.613 89.448,153.269 88.875 C 152.924 88.302,152.606 87.833,152.561 87.833 C 152.517 87.833,152.533 87.927,152.598 88.042 M31.542 88.767 L 30.833 89.361 30.833 95.896 L 30.833 102.431 30.101 103.149 L 29.369 103.868 26.476 103.767 C 24.639 103.703,23.705 103.722,23.917 103.821 C 24.100 103.907,25.415 103.982,26.840 103.988 L 29.429 104.000 30.215 103.203 L 31.000 102.405 31.000 95.878 L 31.000 89.350 31.612 88.883 L 32.224 88.417 38.403 88.329 L 44.583 88.242 38.417 88.208 L 32.250 88.173 31.542 88.767 M154.697 91.460 L 155.083 92.170 153.318 95.626 C 152.347 97.528,149.767 102.608,147.584 106.917 C 145.402 111.225,143.178 115.597,142.642 116.632 C 142.105 117.667,141.667 118.564,141.667 118.624 C 141.667 118.949,142.199 117.978,144.380 113.667 C 145.703 111.054,147.968 106.592,149.415 103.750 C 155.948 90.917,155.446 92.121,154.656 91.167 C 154.348 90.795,154.353 90.827,154.697 91.460 M97.873 94.421 L 98.495 95.000 114.373 94.960 L 130.250 94.920 114.291 94.835 L 98.332 94.750 97.938 94.292 C 97.722 94.040,97.478 93.835,97.397 93.838 C 97.316 93.840,97.530 94.103,97.873 94.421 M147.367 96.099 C 147.349 97.207,147.284 99.134,147.225 100.380 L 147.116 102.646 146.254 103.240 L 145.392 103.833 142.774 103.833 C 140.658 103.833,140.068 103.782,139.702 103.564 L 139.250 103.294 139.667 103.643 C 140.051 103.966,140.289 103.993,142.750 103.996 L 145.417 104.000 146.357 103.333 L 147.298 102.666 147.412 99.791 C 147.475 98.210,147.498 96.279,147.464 95.500 C 147.408 94.241,147.397 94.307,147.367 96.099 M131.912 94.957 C 132.368 94.993,132.856 95.110,132.996 95.219 C 133.218 95.392,133.221 95.380,133.021 95.125 C 132.850 94.906,132.579 94.841,131.938 94.863 L 131.083 94.893 131.912 94.957 M249.928 95.417 C 249.683 95.737,249.546 96.000,249.622 96.000 C 249.699 96.000,249.894 95.775,250.056 95.501 L 250.351 95.001 270.801 94.958 L 291.250 94.915 270.811 94.874 L 250.373 94.833 249.928 95.417 M87.925 95.750 C 87.971 96.025,88.155 96.700,88.334 97.250 C 88.512 97.800,88.621 98.025,88.575 97.750 C 88.529 97.475,88.345 96.800,88.166 96.250 C 87.988 95.700,87.879 95.475,87.925 95.750 M133.785 95.785 L 134.320 96.263 134.333 99.256 C 134.341 100.903,134.344 102.340,134.340 102.450 C 134.336 102.561,133.977 102.898,133.542 103.200 L 132.750 103.750 128.750 103.839 L 124.750 103.928 128.728 103.964 L 132.705 104.000 133.522 103.400 C 134.640 102.580,134.634 102.600,134.658 99.457 C 134.681 96.436,134.632 96.220,133.792 95.665 L 133.250 95.307 133.785 95.785 M329.700 95.458 L 348.316 95.501 348.382 96.376 L 348.448 97.250 348.433 96.333 L 348.417 95.417 329.750 95.416 L 311.083 95.414 329.700 95.458 M293.298 99.284 C 293.342 102.563,293.321 102.891,293.048 103.111 C 292.775 103.331,292.782 103.336,293.125 103.170 C 293.507 102.985,293.743 96.004,293.375 95.776 C 293.306 95.733,293.272 97.312,293.298 99.284 M88.679 98.500 C 88.674 98.638,89.381 99.519,90.251 100.460 C 91.121 101.400,91.833 102.126,91.833 102.072 C 91.833 102.019,91.177 101.264,90.375 100.396 C 89.573 99.527,88.866 98.689,88.803 98.533 C 88.715 98.313,88.688 98.306,88.679 98.500 M346.819 100.203 C 346.694 100.504,346.403 100.929,346.171 101.148 C 345.784 101.514,345.781 101.530,346.124 101.351 C 346.483 101.164,347.269 99.880,347.117 99.729 C 347.078 99.689,346.943 99.902,346.819 100.203 M21.505 101.935 C 21.515 102.245,22.768 103.476,23.167 103.568 C 23.541 103.654,23.535 103.641,23.109 103.442 C 22.848 103.320,22.379 102.898,22.067 102.503 C 21.755 102.109,21.502 101.853,21.505 101.935 M138.060 102.462 C 138.192 102.675,139.167 103.397,139.167 103.281 C 139.167 103.240,138.891 102.996,138.555 102.740 C 138.218 102.483,137.996 102.358,138.060 102.462 M93.583 102.978 C 93.767 103.058,94.179 103.171,94.500 103.229 C 94.900 103.302,94.979 103.289,94.750 103.189 C 94.567 103.109,94.154 102.996,93.833 102.937 C 93.433 102.865,93.355 102.877,93.583 102.978 M95.417 103.500 C 95.600 103.579,95.900 103.643,96.083 103.643 L 96.417 103.643 96.083 103.500 C 95.900 103.421,95.600 103.357,95.417 103.357 L 95.083 103.357 95.417 103.500 M74.109 103.875 C 74.152 103.944,75.527 104.000,77.167 104.000 C 78.806 104.000,80.182 103.944,80.224 103.875 C 80.267 103.806,78.891 103.750,77.167 103.750 C 75.443 103.750,74.067 103.806,74.109 103.875 M96.750 103.833 C 96.933 103.912,103.121 103.967,110.500 103.956 C 122.850 103.937,123.327 103.927,116.500 103.824 C 105.722 103.662,96.361 103.666,96.750 103.833 M138.149 125.464 C 136.719 128.280,133.963 133.705,132.024 137.521 C 130.086 141.336,128.500 144.537,128.500 144.633 C 128.500 144.841,129.435 145.335,129.817 145.330 C 129.964 145.328,129.758 145.178,129.361 144.998 C 128.963 144.818,128.663 144.608,128.694 144.533 C 128.844 144.166,131.761 138.406,131.833 138.333 C 131.879 138.287,133.013 136.075,134.352 133.417 C 135.691 130.758,137.700 126.791,138.816 124.600 C 139.931 122.409,140.823 120.555,140.797 120.481 C 140.771 120.407,139.580 122.649,138.149 125.464 " stroke="none" fill="#999899" fill-rule="evenodd"></path><path id="path4" d="M175.917 3.942 C 171.548 8.105,167.882 11.604,166.500 12.929 C 165.629 13.765,164.506 14.831,164.005 15.298 C 163.503 15.766,163.131 16.187,163.178 16.234 C 163.225 16.281,164.952 14.691,167.016 12.701 C 174.765 5.230,177.147 2.996,177.526 2.844 C 177.873 2.705,177.879 2.687,177.583 2.679 C 177.388 2.674,176.696 3.199,175.917 3.942 M179.333 2.839 C 179.929 2.906,181.017 2.958,181.750 2.955 L 183.083 2.949 182.000 2.827 C 181.404 2.760,180.317 2.708,179.583 2.712 L 178.250 2.717 179.333 2.839 M183.187 3.076 C 183.229 3.118,184.910 3.235,186.923 3.337 C 188.936 3.438,190.996 3.550,191.500 3.584 C 192.004 3.619,193.992 3.730,195.917 3.831 C 197.842 3.931,200.579 4.085,202.000 4.172 C 203.421 4.259,205.783 4.364,207.250 4.405 C 210.892 4.508,208.324 4.287,201.583 3.918 C 198.925 3.773,194.125 3.508,190.917 3.329 C 185.032 3.002,183.048 2.937,183.187 3.076 M210.518 4.565 C 210.574 4.625,212.111 4.748,213.935 4.838 C 219.394 5.105,223.172 5.311,234.000 5.928 C 239.790 6.259,243.608 6.401,243.498 6.283 C 243.451 6.232,241.726 6.106,239.665 6.003 C 233.663 5.703,230.553 5.536,225.667 5.253 C 214.391 4.601,210.384 4.419,210.518 4.565 M243.686 6.408 C 243.727 6.450,245.334 6.567,247.256 6.669 C 249.177 6.772,251.912 6.922,253.333 7.002 C 254.754 7.083,257.379 7.228,259.167 7.323 C 260.954 7.419,263.579 7.571,265.000 7.661 C 268.269 7.868,270.625 7.862,268.167 7.653 C 267.296 7.579,264.408 7.399,261.750 7.254 C 259.092 7.108,254.404 6.843,251.333 6.665 C 245.759 6.341,243.544 6.267,243.686 6.408 M270.673 7.887 C 270.722 7.941,271.660 8.027,272.756 8.080 C 273.853 8.132,275.237 8.214,275.833 8.263 C 276.906 8.352,281.302 8.596,285.000 8.772 C 286.054 8.822,287.479 8.919,288.167 8.988 C 288.854 9.057,289.604 9.057,289.833 8.988 C 290.175 8.885,290.190 8.859,289.917 8.845 C 289.733 8.836,286.246 8.638,282.167 8.406 C 272.529 7.857,270.564 7.769,270.673 7.887 M291.684 10.380 C 291.574 10.767,291.424 11.233,291.349 11.417 C 291.143 11.923,286.353 21.486,283.669 26.750 C 280.424 33.113,276.336 41.165,274.108 45.583 C 273.091 47.600,272.219 49.288,272.171 49.333 C 271.991 49.505,271.489 50.711,271.566 50.788 C 271.610 50.832,271.960 50.241,272.345 49.476 C 272.730 48.710,274.094 46.021,275.378 43.500 C 277.947 38.453,280.886 32.672,285.208 24.167 C 286.768 21.096,288.756 17.196,289.626 15.500 C 291.198 12.432,292.247 9.903,292.008 9.755 C 291.939 9.712,291.793 9.994,291.684 10.380 M278.833 11.838 C 277.261 11.989,275.129 12.316,275.024 12.421 C 274.878 12.566,275.736 12.501,277.167 12.258 C 277.946 12.126,278.865 12.028,279.209 12.042 C 279.553 12.055,279.924 11.976,280.034 11.866 C 280.143 11.757,280.200 11.678,280.158 11.692 C 280.117 11.706,279.521 11.771,278.833 11.838 M273.167 12.667 C 272.591 12.851,273.692 12.851,274.417 12.667 C 274.892 12.546,274.884 12.539,274.250 12.536 C 273.883 12.535,273.396 12.593,273.167 12.667 M270.167 13.096 C 268.478 13.373,267.164 13.580,265.583 13.817 C 263.367 14.150,263.084 14.210,263.317 14.294 C 263.445 14.340,264.045 14.296,264.650 14.195 C 265.255 14.095,267.025 13.817,268.583 13.579 C 270.142 13.341,271.679 13.083,272.000 13.007 C 273.002 12.768,271.818 12.826,270.167 13.096 M260.583 14.579 C 259.942 14.691,258.779 14.874,258.000 14.986 C 257.221 15.099,256.208 15.256,255.750 15.335 C 254.878 15.485,253.276 15.741,252.000 15.935 C 251.588 15.998,251.337 16.080,251.444 16.117 C 251.551 16.154,253.163 15.950,255.027 15.662 C 259.878 14.913,260.118 14.877,261.490 14.675 C 262.172 14.574,262.766 14.456,262.809 14.413 C 262.941 14.281,261.823 14.365,260.583 14.579 M249.167 16.338 C 248.754 16.411,247.629 16.591,246.667 16.738 C 245.704 16.884,244.504 17.075,244.000 17.163 C 243.496 17.250,242.708 17.374,242.250 17.439 C 241.792 17.503,241.546 17.586,241.705 17.623 C 241.977 17.686,248.981 16.664,250.417 16.352 L 251.083 16.207 250.500 16.205 C 250.179 16.205,249.579 16.264,249.167 16.338 M161.583 17.628 C 160.850 18.337,159.458 19.667,158.492 20.583 C 156.265 22.695,150.146 28.536,149.239 29.417 C 148.603 30.035,144.502 33.946,142.583 35.766 C 142.125 36.201,140.362 37.884,138.667 39.507 C 136.971 41.130,135.276 42.749,134.899 43.104 C 133.813 44.130,128.119 49.559,125.835 51.747 C 122.879 54.578,120.645 56.707,119.012 58.250 C 118.235 58.983,117.253 59.921,116.829 60.333 C 116.404 60.746,114.790 62.283,113.242 63.750 C 111.693 65.217,109.599 67.216,108.588 68.192 C 107.577 69.168,106.487 70.208,106.167 70.501 C 105.846 70.795,104.346 72.218,102.833 73.664 C 101.321 75.110,99.821 76.536,99.500 76.833 C 97.631 78.560,97.320 78.876,97.402 78.958 C 97.452 79.008,98.151 78.414,98.955 77.638 C 99.759 76.862,102.967 73.799,106.083 70.832 C 109.200 67.866,112.691 64.533,113.841 63.427 C 114.992 62.321,116.492 60.892,117.175 60.251 C 118.907 58.626,125.027 52.789,127.331 50.564 C 128.387 49.546,129.846 48.158,130.575 47.481 C 131.304 46.804,132.992 45.196,134.325 43.908 C 135.659 42.621,137.462 40.899,138.333 40.083 C 139.204 39.267,140.932 37.621,142.172 36.425 C 143.413 35.229,145.963 32.789,147.839 31.004 C 149.715 29.218,152.069 26.968,153.070 26.004 C 155.199 23.953,155.510 23.657,157.264 22.013 C 159.152 20.244,162.543 16.944,162.812 16.614 C 163.272 16.049,162.886 16.368,161.583 17.628 M239.667 17.833 C 239.311 17.947,239.347 17.967,239.917 17.967 C 240.283 17.967,240.771 17.907,241.000 17.833 C 241.356 17.719,241.320 17.700,240.750 17.700 C 240.383 17.700,239.896 17.760,239.667 17.833 M236.917 18.242 C 236.275 18.356,235.075 18.543,234.250 18.658 C 232.644 18.883,231.645 19.130,232.250 19.153 C 232.433 19.160,233.221 19.060,234.000 18.930 C 234.779 18.801,236.054 18.604,236.833 18.492 C 237.612 18.381,238.475 18.231,238.750 18.160 L 239.250 18.030 238.667 18.033 C 238.346 18.035,237.558 18.129,236.917 18.242 M230.167 19.333 C 229.591 19.518,230.692 19.518,231.417 19.333 C 231.892 19.212,231.884 19.206,231.250 19.203 C 230.883 19.201,230.396 19.260,230.167 19.333 M227.833 19.671 C 227.421 19.745,226.296 19.925,225.333 20.071 C 224.371 20.217,223.171 20.406,222.667 20.491 C 222.162 20.576,221.188 20.732,220.500 20.837 C 219.813 20.942,218.987 21.089,218.667 21.164 C 217.770 21.372,218.718 21.375,219.847 21.168 C 220.632 21.024,222.347 20.749,227.250 19.983 C 227.892 19.883,228.717 19.741,229.083 19.668 L 229.750 19.536 229.167 19.536 C 228.846 19.537,228.246 19.597,227.833 19.671 M216.167 21.505 C 215.754 21.579,214.592 21.761,213.583 21.909 C 212.575 22.057,211.375 22.246,210.917 22.330 C 210.458 22.413,209.521 22.567,208.833 22.672 C 207.200 22.920,206.309 23.127,206.779 23.149 C 206.978 23.159,208.028 23.022,209.112 22.845 C 210.196 22.667,212.358 22.325,213.917 22.084 C 217.193 21.577,218.222 21.367,217.417 21.369 C 217.142 21.370,216.579 21.431,216.167 21.505 M203.750 23.428 C 203.017 23.552,201.967 23.730,201.417 23.823 C 200.867 23.916,199.817 24.079,199.083 24.186 C 198.350 24.292,197.525 24.437,197.250 24.508 C 196.108 24.802,197.616 24.646,200.703 24.152 C 202.470 23.870,204.400 23.568,204.990 23.482 C 205.580 23.396,206.099 23.290,206.143 23.246 C 206.281 23.107,205.130 23.195,203.750 23.428 M194.417 24.907 C 193.775 25.020,192.612 25.204,191.833 25.316 C 191.054 25.429,190.079 25.586,189.667 25.667 C 189.254 25.747,188.279 25.902,187.500 26.011 C 186.721 26.121,185.858 26.269,185.583 26.340 C 184.795 26.545,185.710 26.542,186.847 26.337 C 187.764 26.171,192.221 25.472,194.500 25.138 C 195.188 25.037,195.975 24.896,196.250 24.825 L 196.750 24.697 196.167 24.700 C 195.846 24.701,195.058 24.795,194.417 24.907 M182.333 26.854 C 181.371 27.026,179.798 27.244,178.838 27.337 C 177.879 27.430,177.046 27.561,176.988 27.628 C 175.286 29.603,174.107 31.221,171.372 35.333 C 170.854 36.112,170.388 36.787,170.336 36.833 C 170.285 36.879,169.434 38.117,168.445 39.583 C 166.659 42.233,165.642 43.720,162.475 48.314 C 161.566 49.632,160.849 50.738,160.883 50.771 C 160.967 50.856,166.110 43.431,173.126 33.094 C 176.206 28.555,177.007 27.667,178.015 27.667 C 178.788 27.667,184.838 26.713,184.986 26.568 C 185.126 26.431,184.042 26.548,182.333 26.854 M177.825 47.016 C 177.634 47.392,177.505 47.728,177.540 47.762 C 177.575 47.797,177.767 47.490,177.966 47.080 C 178.421 46.145,178.298 46.090,177.825 47.016 M175.417 51.833 C 174.728 53.208,174.202 54.333,174.248 54.333 C 174.294 54.333,174.895 53.208,175.583 51.833 C 176.272 50.458,176.798 49.333,176.752 49.333 C 176.706 49.333,176.105 50.458,175.417 51.833 M160.168 51.691 C 159.578 52.506,157.157 56.063,156.917 56.469 C 156.825 56.623,156.709 56.788,156.658 56.833 C 156.607 56.879,156.339 57.254,156.061 57.667 C 154.445 60.069,152.142 63.453,151.225 64.774 C 150.643 65.612,150.167 66.399,150.167 66.524 C 150.168 66.648,150.312 66.513,150.489 66.224 C 150.665 65.934,152.528 63.197,154.628 60.140 C 156.728 57.084,158.657 54.246,158.915 53.833 C 159.172 53.421,159.428 53.046,159.484 53.000 C 159.539 52.954,159.806 52.579,160.076 52.167 C 160.347 51.754,160.637 51.323,160.721 51.208 C 160.805 51.094,160.828 51.000,160.771 51.000 C 160.715 51.000,160.443 51.311,160.168 51.691 M271.281 51.116 C 271.181 51.278,267.349 58.806,265.544 62.386 C 264.859 63.744,264.332 64.887,264.372 64.927 C 264.412 64.967,265.518 62.881,266.831 60.292 C 268.143 57.702,269.735 54.581,270.368 53.356 C 271.000 52.132,271.484 51.095,271.442 51.054 C 271.401 51.012,271.328 51.040,271.281 51.116 M170.409 61.682 C 170.262 61.966,170.172 62.227,170.208 62.263 C 170.244 62.300,170.398 62.068,170.551 61.748 C 170.894 61.029,170.775 60.974,170.409 61.682 M169.167 64.167 C 168.889 64.717,168.699 65.167,168.745 65.167 C 168.791 65.167,169.056 64.717,169.333 64.167 C 169.611 63.617,169.801 63.167,169.755 63.167 C 169.709 63.167,169.444 63.617,169.167 64.167 M21.404 70.000 C 21.404 71.879,21.428 72.648,21.458 71.708 C 21.487 70.769,21.487 69.231,21.458 68.292 C 21.428 67.352,21.404 68.121,21.404 70.000 M66.069 69.583 C 66.069 71.233,66.094 71.886,66.124 71.033 C 66.155 70.181,66.154 68.831,66.124 68.033 C 66.093 67.236,66.069 67.933,66.069 69.583 M72.080 84.500 C 72.080 94.354,72.100 98.385,72.125 93.458 C 72.149 88.531,72.149 80.469,72.125 75.542 C 72.100 70.615,72.080 74.646,72.080 84.500 M81.747 84.500 C 81.747 94.354,81.767 98.385,81.792 93.458 C 81.816 88.531,81.816 80.469,81.792 75.542 C 81.767 70.615,81.747 74.646,81.747 84.500 M301.127 69.049 C 300.883 69.251,300.192 70.391,299.591 71.582 L 298.500 73.748 298.500 86.052 L 298.500 98.356 299.658 100.639 C 300.789 102.868,300.838 102.933,301.700 103.379 C 302.186 103.630,303.283 104.210,304.137 104.668 C 304.992 105.126,305.738 105.500,305.796 105.500 C 306.063 105.500,305.415 105.113,303.417 104.078 C 300.800 102.724,301.116 103.036,299.773 100.473 L 298.667 98.363 298.667 86.102 L 298.667 73.841 299.753 71.712 C 300.350 70.541,301.034 69.411,301.272 69.200 C 301.835 68.701,301.707 68.569,301.127 69.049 M291.562 74.227 L 291.207 74.917 275.201 75.000 C 266.397 75.046,259.151 75.126,259.099 75.179 C 258.881 75.397,256.520 80.167,256.630 80.166 C 256.696 80.166,257.313 79.060,258.000 77.708 L 259.250 75.250 275.250 75.202 L 291.250 75.155 291.699 74.415 C 291.946 74.008,292.096 73.644,292.033 73.606 C 291.969 73.568,291.757 73.847,291.562 74.227 M346.931 74.268 C 347.012 74.697,346.978 74.912,346.814 75.016 C 346.685 75.099,338.385 75.163,327.928 75.162 C 317.667 75.162,309.215 75.219,309.144 75.289 C 309.010 75.423,346.598 75.390,346.958 75.255 C 347.213 75.160,347.245 73.667,346.992 73.667 C 346.883 73.667,346.860 73.889,346.931 74.268 M21.412 90.500 C 21.412 96.688,21.433 99.219,21.458 96.125 C 21.484 93.031,21.484 87.969,21.458 84.875 C 21.433 81.781,21.412 84.313,21.412 90.500 M97.333 83.166 C 97.333 83.264,97.864 83.333,98.611 83.333 C 99.314 83.333,99.858 83.306,99.819 83.273 C 99.634 83.112,97.333 83.013,97.333 83.166 M100.015 83.404 C 100.085 83.474,101.695 83.575,110.917 84.091 C 122.114 84.718,128.169 84.974,124.500 84.665 C 123.537 84.584,121.325 84.440,119.583 84.345 C 113.673 84.023,110.093 83.825,105.740 83.579 C 101.236 83.324,99.894 83.283,100.015 83.404 M147.724 84.583 C 147.724 85.317,147.754 85.596,147.789 85.204 C 147.824 84.812,147.824 84.212,147.788 83.871 C 147.752 83.529,147.723 83.850,147.724 84.583 M128.167 85.005 C 128.854 85.070,130.167 85.121,131.083 85.119 L 132.750 85.115 131.333 84.991 C 130.554 84.922,129.242 84.871,128.417 84.877 L 126.917 84.887 128.167 85.005 M136.551 86.590 C 135.927 87.556,134.468 89.788,133.309 91.548 C 132.149 93.309,131.230 94.781,131.267 94.819 C 131.351 94.907,133.937 91.051,136.985 86.292 C 137.382 85.673,137.772 85.167,137.853 85.167 C 137.934 85.167,138.000 85.092,138.000 85.000 C 138.000 84.536,137.581 84.997,136.551 86.590 M133.750 85.279 C 136.534 85.437,136.489 85.556,130.299 94.375 C 130.122 94.627,130.039 94.831,130.114 94.828 C 130.189 94.825,130.662 94.206,131.167 93.454 C 131.671 92.702,132.894 90.907,133.884 89.466 C 135.627 86.930,135.684 86.820,135.634 86.048 L 135.583 85.250 134.167 85.236 C 133.365 85.228,133.184 85.247,133.750 85.279 M46.050 88.291 C 46.949 88.321,48.374 88.321,49.217 88.291 C 50.060 88.261,49.325 88.236,47.583 88.236 C 45.842 88.236,45.152 88.261,46.050 88.291 M291.108 89.049 C 290.335 89.858,289.983 90.333,290.157 90.333 C 290.241 90.333,290.476 90.090,290.678 89.792 C 290.880 89.494,291.241 89.082,291.481 88.876 C 291.721 88.670,291.853 88.501,291.775 88.501 C 291.697 88.500,291.397 88.747,291.108 89.049 M251.208 90.583 C 251.094 90.713,251.000 90.879,250.999 90.951 C 250.999 91.024,250.728 91.608,250.396 92.250 C 249.234 94.498,248.982 95.038,249.057 95.113 C 249.099 95.155,249.636 94.190,250.250 92.970 C 250.865 91.749,251.487 90.656,251.632 90.542 C 251.847 90.372,251.852 90.335,251.657 90.340 C 251.525 90.343,251.323 90.452,251.208 90.583 M261.471 90.458 C 266.726 90.483,275.276 90.483,280.471 90.458 C 285.666 90.434,281.367 90.414,270.917 90.414 C 260.467 90.414,256.216 90.434,261.471 90.458 M248.481 96.026 C 247.283 98.335,243.110 106.563,241.716 109.365 C 240.524 111.762,239.971 112.704,239.667 112.859 C 239.438 112.976,239.063 113.194,238.833 113.344 C 238.604 113.493,238.267 113.660,238.083 113.713 C 237.900 113.767,237.338 113.934,236.833 114.084 C 235.885 114.366,235.279 114.541,234.208 114.843 C 233.865 114.940,233.358 115.084,233.083 115.165 C 231.233 115.704,229.275 116.280,226.000 117.250 C 222.152 118.390,221.672 118.531,220.667 118.810 C 220.346 118.899,219.408 119.171,218.583 119.414 C 216.655 119.983,216.211 120.112,215.500 120.312 C 215.179 120.403,214.504 120.600,214.000 120.750 C 213.055 121.032,212.454 121.205,211.375 121.509 C 210.087 121.872,209.675 121.993,206.583 122.918 C 204.842 123.439,203.192 123.926,202.917 124.002 C 202.642 124.077,201.742 124.338,200.917 124.581 C 198.960 125.158,198.542 125.279,197.792 125.491 C 196.713 125.795,196.112 125.968,195.167 126.250 C 194.221 126.532,193.621 126.705,192.542 127.009 C 191.399 127.331,190.936 127.468,188.333 128.253 C 186.912 128.681,185.525 129.092,185.250 129.167 C 183.989 129.509,181.042 130.356,180.667 130.485 C 180.438 130.564,179.950 130.709,179.583 130.807 C 179.217 130.906,178.279 131.178,177.500 131.412 C 176.721 131.645,175.783 131.919,175.417 132.021 C 175.050 132.122,174.563 132.264,174.333 132.336 C 174.104 132.407,173.467 132.594,172.917 132.751 C 172.367 132.908,171.600 133.139,171.212 133.265 C 170.825 133.390,169.963 133.640,169.296 133.820 C 168.629 134.000,167.821 134.231,167.500 134.334 C 166.796 134.559,163.255 135.590,162.057 135.919 C 161.584 136.049,160.421 136.390,159.473 136.677 C 158.526 136.965,157.487 137.272,157.167 137.359 C 156.500 137.542,155.964 137.697,154.667 138.083 C 154.162 138.234,153.487 138.430,153.167 138.521 C 152.846 138.611,152.358 138.752,152.083 138.833 C 151.808 138.915,151.321 139.054,151.000 139.143 C 150.679 139.233,150.154 139.391,149.833 139.495 C 149.512 139.600,148.200 139.985,146.917 140.350 C 145.633 140.716,144.358 141.088,144.083 141.176 C 143.519 141.358,140.369 142.287,139.542 142.517 C 138.482 142.810,137.898 142.978,136.417 143.414 C 133.822 144.179,133.586 144.247,130.691 145.061 C 129.763 145.322,129.429 145.500,129.865 145.500 C 130.088 145.500,135.235 144.052,136.333 143.680 C 136.563 143.602,137.050 143.455,137.417 143.353 C 137.783 143.251,138.871 142.935,139.833 142.651 C 140.796 142.366,141.808 142.073,142.083 141.999 C 142.965 141.762,153.568 138.661,154.000 138.514 C 154.229 138.436,154.717 138.289,155.083 138.187 C 155.450 138.085,156.537 137.769,157.500 137.484 C 158.462 137.200,159.512 136.895,159.833 136.807 C 160.770 136.551,161.040 136.472,169.167 134.083 C 173.429 132.830,177.160 131.736,177.458 131.652 C 177.756 131.569,178.244 131.431,178.542 131.347 C 178.840 131.263,179.758 130.995,180.583 130.752 C 182.623 130.151,182.990 130.045,183.667 129.857 C 183.987 129.768,188.000 128.594,192.583 127.249 C 197.167 125.903,201.142 124.742,201.417 124.667 C 201.692 124.592,204.504 123.769,207.667 122.838 C 210.829 121.907,213.804 121.040,214.277 120.912 C 214.750 120.784,215.912 120.444,216.860 120.156 C 217.808 119.869,218.827 119.566,219.125 119.483 C 220.185 119.190,220.769 119.022,222.250 118.586 C 223.075 118.343,223.975 118.081,224.250 118.004 C 225.523 117.649,235.797 114.640,236.167 114.514 C 236.396 114.436,236.921 114.275,237.333 114.156 C 238.609 113.788,239.993 113.020,240.297 112.511 C 240.455 112.247,242.083 109.064,243.917 105.436 C 245.750 101.808,247.306 98.838,247.375 98.836 C 247.444 98.835,247.500 100.019,247.500 101.467 L 247.500 104.101 248.513 104.815 C 249.070 105.208,249.560 105.496,249.601 105.455 C 249.642 105.414,249.227 105.088,248.678 104.732 L 247.681 104.083 247.674 101.389 C 247.670 99.907,247.622 98.557,247.568 98.389 C 247.493 98.160,247.509 98.140,247.630 98.309 C 247.824 98.581,248.045 98.311,247.912 97.965 C 247.863 97.838,248.090 97.221,248.417 96.594 C 248.744 95.968,248.976 95.420,248.934 95.378 C 248.891 95.336,248.687 95.627,248.481 96.026 M249.075 96.461 C 248.800 96.652,247.945 97.834,248.024 97.913 C 248.063 97.952,248.370 97.612,248.708 97.158 C 249.045 96.705,249.305 96.334,249.285 96.336 C 249.266 96.337,249.171 96.394,249.075 96.461 M147.390 101.083 C 147.391 101.817,147.420 102.096,147.456 101.704 C 147.491 101.312,147.490 100.712,147.454 100.371 C 147.419 100.029,147.390 100.350,147.390 101.083 M345.533 101.700 C 345.423 101.810,345.333 101.984,345.333 102.088 C 345.333 102.274,344.646 103.000,344.469 103.000 C 344.418 103.000,343.572 103.487,342.590 104.083 L 340.803 105.167 333.443 105.188 C 329.395 105.200,324.096 105.263,321.667 105.328 C 318.534 105.412,320.667 105.442,329.000 105.432 L 340.750 105.417 341.667 104.850 C 342.171 104.538,342.846 104.136,343.167 103.956 C 344.919 102.973,345.199 102.757,345.510 102.147 C 345.857 101.466,345.862 101.371,345.533 101.700 M120.250 109.123 C 114.962 116.850,113.588 118.869,113.244 119.417 L 112.930 119.917 113.298 119.599 C 113.501 119.425,113.667 119.187,113.667 119.071 C 113.667 118.956,113.730 118.836,113.807 118.806 C 113.884 118.775,115.122 117.006,116.559 114.875 C 117.996 112.743,120.254 109.424,121.576 107.500 C 122.898 105.575,123.928 104.002,123.865 104.005 C 123.802 104.007,122.175 106.310,120.250 109.123 M124.452 104.582 C 124.203 104.894,124.000 105.222,124.000 105.311 C 124.000 105.399,123.943 105.497,123.873 105.528 C 123.742 105.585,123.394 106.081,121.263 109.250 C 119.988 111.147,119.218 112.271,115.333 117.917 C 112.173 122.507,111.590 123.770,112.708 123.599 C 113.006 123.553,113.892 123.472,114.678 123.419 C 115.463 123.365,116.325 123.251,116.594 123.164 C 116.997 123.036,116.936 123.022,116.250 123.087 C 115.792 123.130,114.720 123.212,113.868 123.270 L 112.320 123.374 112.605 122.645 C 112.903 121.884,113.954 120.229,116.457 116.583 C 123.605 106.170,125.002 104.113,124.957 104.068 C 124.928 104.039,124.701 104.270,124.452 104.582 M291.908 104.481 C 291.821 104.562,291.376 104.824,290.918 105.064 C 290.460 105.304,290.182 105.500,290.299 105.500 C 290.636 105.500,292.167 104.678,292.167 104.497 C 292.167 104.295,292.112 104.291,291.908 104.481 M307.042 105.624 C 307.660 105.656,308.673 105.656,309.292 105.624 C 309.910 105.592,309.404 105.565,308.167 105.565 C 306.929 105.565,306.423 105.592,307.042 105.624 M141.575 118.306 C 141.319 118.531,139.652 119.199,138.750 119.437 L 137.917 119.656 138.667 119.601 C 139.079 119.571,139.754 119.392,140.167 119.203 C 140.579 119.015,141.078 118.814,141.276 118.757 C 141.474 118.700,141.678 118.544,141.729 118.410 C 141.836 118.132,141.800 118.108,141.575 118.306 M136.000 119.850 C 135.236 119.996,130.931 120.686,128.667 121.026 C 127.979 121.129,127.192 121.271,126.917 121.341 L 126.417 121.470 126.867 121.485 C 127.114 121.493,127.677 121.430,128.117 121.344 C 128.557 121.258,129.704 121.069,130.667 120.924 C 134.228 120.388,136.629 119.995,137.333 119.834 L 137.917 119.701 137.333 119.704 C 137.012 119.705,136.412 119.771,136.000 119.850 M111.877 121.378 C 110.339 123.796,110.839 124.970,113.225 124.541 C 113.855 124.428,113.797 124.409,112.583 124.333 L 111.250 124.250 111.198 123.526 C 111.152 122.892,111.247 122.656,111.962 121.610 C 112.983 120.117,113.051 119.999,112.885 120.003 C 112.811 120.004,112.357 120.623,111.877 121.378 M139.333 120.254 C 139.196 120.281,138.558 120.383,137.917 120.481 C 134.309 121.030,127.704 122.062,126.000 122.343 C 125.496 122.426,123.808 122.685,122.250 122.918 C 117.409 123.643,117.104 123.691,116.333 123.838 C 115.921 123.917,115.208 124.035,114.750 124.102 C 114.292 124.168,114.043 124.252,114.197 124.288 C 114.438 124.344,115.765 124.152,122.083 123.145 C 122.633 123.057,123.533 122.921,124.083 122.842 C 125.624 122.621,131.638 121.685,132.667 121.506 C 133.515 121.358,133.994 121.282,136.875 120.840 C 137.448 120.752,138.430 120.599,139.057 120.499 C 139.912 120.363,140.256 120.367,140.432 120.513 C 140.574 120.631,140.667 120.641,140.667 120.538 C 140.667 120.237,140.070 120.110,139.333 120.254 M124.583 121.674 C 124.217 121.749,122.679 122.005,121.167 122.242 C 119.654 122.479,118.117 122.720,117.750 122.777 C 117.383 122.835,117.181 122.917,117.301 122.958 C 117.420 123.000,118.283 122.912,119.217 122.764 C 120.152 122.615,121.404 122.416,122.000 122.322 C 124.663 121.899,125.286 121.793,125.833 121.668 L 126.417 121.534 125.833 121.535 C 125.513 121.535,124.950 121.598,124.583 121.674 " stroke="none" fill="#f39d9c" fill-rule="evenodd"></path></g></svg>